<?xml version="1.0" encoding="UTF-8"?>
<svg width="33px" height="33px" viewBox="0 0 33 33" version="1.1" xmlns="http://www.w3.org/2000/svg" xmlns:xlink="http://www.w3.org/1999/xlink">
    <!-- Generator: Sketch 51.2 (57519) - http://www.bohemiancoding.com/sketch -->
    <title>enlarge copy</title>
    <desc>Created with Sketch.</desc>
    <defs></defs>
    <g id="Page-1" stroke="none" stroke-width="1" fill="none" fill-rule="evenodd" opacity="0.74">
        <g id="Tours-Copy-Table" transform="translate(-1324.000000, -751.000000)" fill="#000000">
            <g id="header-and-hero-image" transform="translate(-25.000000, 7.000000)">
                <g id="image-for-tour-" transform="translate(97.000000, 123.000000)">
                    <g id="enlarge-copy-4" transform="translate(1252.000000, 620.000000)">
                        <path d="M0.66776,26.73083 L0.66776,22.11538 L12.094684,22.11538 L12.094684,33.65453 L7.523622,33.65453 L7.523622,26.73083 L0.66776,26.73083 Z M7.523622,8.26945 L7.523622,1.346135 L12.094684,1.346135 L12.094684,12.88525 L0.66776,12.88525 L0.66776,8.26945 L7.523622,8.26945 Z M21.23759,33.65453 L21.23759,22.11538 L32.667234,22.11538 L32.667234,26.73083 L25.8094,26.73083 L25.8094,33.65453 L21.23759,33.65453 Z M25.8094,8.26945 L32.667234,8.26945 L32.667234,12.88525 L21.23759,12.88525 L21.23759,1.346135 L25.8094,1.346135 L25.8094,8.26945 Z" id="Combined-shape-2733"></path>
                    </g>
                </g>
            </g>
        </g>
    </g>
</svg>