<?xml version="1.0" encoding="UTF-8"?>
<svg width="510px" height="511px" viewBox="0 0 510 511" version="1.1" xmlns="http://www.w3.org/2000/svg" xmlns:xlink="http://www.w3.org/1999/xlink">
    <!-- Generator: Sketch 51.2 (57519) - http://www.bohemiancoding.com/sketch -->
    <title>island-record-logo</title>
    <desc>Created with Sketch.</desc>
    <defs></defs>
    <g id="island-record-logo" stroke="none" stroke-width="1" fill="none" fill-rule="evenodd">
        <path d="M264.0994,356.2885 C263.0624,351.5235 263.2844,347.2495 264.0174,343.0065 C266.0774,331.0905 270.4584,319.8965 274.8594,308.7155 C276.1034,305.5535 277.4034,302.4125 278.5314,299.1265 C274.1734,302.0475 270.4204,305.6635 266.9264,309.5005 C263.3374,313.4425 259.8194,317.4935 256.7094,321.8125 C253.6424,326.0755 250.7994,330.5725 248.4584,335.2655 C246.1384,339.9145 244.5674,344.9355 242.5524,350.0895 C241.1394,344.4555 239.5464,338.9145 238.3754,333.2855 C235.1804,317.9255 235.5374,302.4925 237.8514,287.0525 C242.1564,258.3415 251.1984,231.1405 263.8334,205.0645 C264.7454,203.1825 265.6624,202.9695 267.4934,203.5775 C277.8014,207.0035 286.1154,213.3145 293.2914,221.2635 C303.1754,232.2095 310.1624,244.8485 314.9384,258.7545 C315.1534,259.3825 315.3684,260.0115 315.5824,260.6395 C315.8074,260.6375 316.0334,260.6365 316.2584,260.6345 C316.8014,257.6535 317.5134,254.6925 317.8574,251.6885 C319.1744,240.1785 316.6884,229.1715 313.0264,218.3865 C311.4624,213.7815 309.4654,209.3235 307.6044,204.6455 C310.4694,204.2195 313.2724,204.7235 316.0044,205.5875 C325.6084,208.6285 332.7684,214.8585 338.4564,222.9725 C338.8754,223.5695 339.2854,224.1735 339.8864,224.6815 C339.8714,214.2705 337.9584,204.2825 333.9864,194.4155 C341.4754,194.7815 348.3424,196.6745 354.7914,199.7185 C361.1524,202.7205 367.2254,206.3315 373.3824,209.6525 C373.1804,208.9465 372.9344,207.8655 372.5634,206.8285 C368.6114,195.7835 361.6754,186.7835 353.2334,178.8455 C343.5344,169.7255 332.4934,162.6365 320.3134,157.2935 C319.9134,157.1185 319.5354,156.8955 319.0644,156.6525 C320.3054,153.5235 322.4864,151.3145 325.1314,149.5235 C331.0304,145.5305 337.7504,143.8525 344.6574,142.8425 C348.3904,142.2955 352.1724,142.0815 356.2664,141.6845 C355.5904,140.9435 355.0744,140.2555 354.4404,139.7015 C350.0674,135.8755 344.7784,134.0615 339.1664,133.3685 C329.7864,132.2095 320.3664,131.2305 311.0054,133.6845 C310.6594,133.7745 310.2684,133.6955 309.5974,133.6955 C312.4934,125.1625 319.9854,122.2465 327.1714,118.4595 C309.0094,111.8495 292.9024,116.4485 277.4724,126.0325 C270.5144,115.9505 263.0334,106.3995 252.2544,100.1085 C250.2864,98.9585 248.0974,98.1845 245.7804,97.4005 C248.2894,105.6185 246.8804,113.7225 246.3814,122.3745 C238.3604,114.3475 228.9624,110.1445 218.5994,107.9655 C215.0164,107.2125 211.3314,106.9465 207.5894,106.7775 C212.1744,109.6595 215.3604,113.5985 217.8684,118.1545 C220.8304,123.5355 222.7884,129.2815 224.2324,135.4615 C221.0584,135.6585 218.0084,135.7565 214.9764,136.0525 C198.1834,137.6885 181.7654,140.8285 166.6764,148.8515 C160.9924,151.8735 155.9504,155.7265 152.6754,161.4745 C152.3324,162.0755 152.0734,162.7245 151.5954,163.7305 C154.7474,163.0975 157.5274,162.3975 160.3504,161.9995 C167.7874,160.9525 175.2184,159.6725 182.6984,159.1785 C189.3224,158.7415 195.9114,159.8885 202.2104,162.1755 C204.3164,162.9405 206.3504,163.9085 207.7824,166.0745 C207.0194,166.4875 206.3644,166.8495 205.7034,167.1995 C192.8224,174.0115 181.3734,182.5995 172.4084,194.2235 C168.9694,198.6825 166.2264,203.5385 164.6784,209.0005 C164.5104,209.5965 164.4124,210.2115 164.1714,211.3245 C171.2294,206.8505 178.5194,204.0685 186.0374,201.9165 C193.5584,199.7645 201.1544,197.8755 208.8564,196.0585 C200.8304,208.0685 193.5804,220.2805 192.1014,234.9315 C192.2554,235.0335 192.4094,235.1365 192.5624,235.2385 C193.2554,234.4535 193.9554,233.6745 194.6414,232.8835 C201.7384,224.6875 209.2414,216.9285 218.5454,211.1765 C224.0274,207.7875 229.8614,205.3585 236.4394,205.2235 C237.2604,205.2055 238.0814,205.2205 238.9724,205.2205 C238.9184,205.6205 238.9524,205.8395 238.8614,205.9775 C230.5774,218.7735 225.7934,232.9985 221.9794,247.5965 C217.9294,263.1015 215.3154,278.8755 213.3724,294.7725 C210.2554,320.2825 208.9674,345.8885 209.1844,371.5775 C209.2054,374.0835 209.2604,376.5885 209.2894,379.0945 C209.2904,379.2075 209.1874,379.3215 209.0534,379.6035 C208.5174,379.6305 207.8934,379.6855 207.2704,379.6865 C192.3404,379.6915 177.4114,379.7035 162.4814,379.6595 C161.5044,379.6565 160.4284,379.4045 159.5684,378.9475 C126.7114,361.4805 101.4154,336.4205 84.0924,303.4405 C73.4944,283.2635 66.9474,261.7885 64.1304,239.1865 C57.7414,187.9045 68.9764,140.9415 99.7634,99.2765 C129.1774,59.4675 168.5184,34.5745 216.9904,24.3925 C236.5784,20.2785 256.4014,19.5635 276.2914,21.8795 C319.6044,26.9225 357.0324,44.6145 388.4394,74.7885 C416.9214,102.1545 435.2144,135.3045 443.3624,173.9765 C447.0164,191.3245 447.9564,208.8685 446.7454,226.5495 C444.9274,253.0525 438.2754,278.2385 426.1304,301.8855 C409.1534,334.9425 384.3114,360.5245 352.1454,379.0435 C351.4624,379.4355 350.5814,379.6625 349.7934,379.6635 C326.5624,379.6955 303.3304,379.6885 280.1004,379.6925 C279.1794,379.6935 278.2724,379.8275 278.2784,378.4165 C278.3134,370.6385 278.1044,362.8475 279.8104,355.1775 C281.0344,349.6775 283.7304,344.9055 286.8454,340.2835 C288.8144,337.3635 290.4614,334.2255 292.2154,331.1625 C292.5454,330.5865 292.6984,329.9075 292.9334,329.2755 C292.8164,329.1365 292.7004,328.9955 292.5834,328.8555 C291.2054,329.4345 289.7574,329.8885 288.4604,330.6135 C282.9144,333.7185 278.6934,338.3325 274.6664,343.1135 C271.5604,346.8015 268.6394,350.6455 265.6334,354.4195 C265.2434,354.9095 264.8374,355.3895 264.0994,356.2885" id="Fill-4" fill="#C6D9DC"></path>
        <path d="M249.2986,451.5824 C244.8896,441.2064 240.5726,431.0474 236.0376,420.3734 C231.2356,431.0554 226.6616,441.2274 222.0066,451.5824 L249.2986,451.5824 Z M369.9182,446.9712 C369.9172,433.6522 369.9502,420.3332 369.8782,407.0152 C369.8682,405.2222 370.4072,404.7292 372.1582,404.7372 C384.8332,404.8002 397.5082,404.6932 410.1832,404.7932 C420.9432,404.8792 430.4252,408.1812 437.5952,416.6212 C442.6242,422.5412 445.1892,429.5532 446.0302,437.1862 C447.1002,446.9042 446.3842,456.4742 442.6182,465.6022 C437.4782,478.0612 427.7532,485.0062 414.8772,487.6902 C410.3802,488.6272 405.7112,489.0122 401.1092,489.1122 C391.4622,489.3222 381.8082,489.1382 372.1572,489.2082 C370.4052,489.2212 369.8692,488.7172 369.8782,486.9272 C369.9512,473.6092 369.9182,460.2892 369.9182,446.9712 Z M380.8572,411.1312 L380.8572,484.5572 C382.2152,484.5572 383.4262,484.5912 384.6352,484.5512 C392.4662,484.2962 400.3942,484.7042 408.1052,483.6022 C420.3392,481.8532 428.6462,474.6502 432.4322,462.7222 C435.3722,453.4582 435.3952,443.9852 433.8132,434.4802 C432.7052,427.8242 430.1832,421.8682 424.6652,417.6092 C419.9902,414.0002 414.5012,412.1822 408.7472,411.8142 C399.7732,411.2392 390.7632,411.2242 381.7692,410.9802 C381.5222,410.9742 381.2722,411.0602 380.8572,411.1312 Z M293.826,489.9896 L286.251,489.9896 C286.207,489.2296 286.133,488.5486 286.133,487.8676 C286.127,461.2246 286.153,434.5826 286.077,407.9406 C286.071,405.8866 286.77,405.5956 288.598,405.4666 C291.383,405.2676 293.169,406.3086 295.003,408.3616 C312.706,428.1686 330.516,447.8806 348.321,467.5956 C348.922,468.2606 349.796,468.6776 350.543,469.2096 C350.706,469.0676 350.869,468.9276 351.033,468.7856 L351.033,405.5916 C353.433,405.5916 355.651,405.5506 357.865,405.6366 C358.183,405.6496 358.655,406.2366 358.745,406.6296 C358.898,407.3036 358.818,408.0356 358.818,408.7426 C358.82,434.8696 358.828,460.9976 358.789,487.1246 C358.788,488.0966 358.522,489.7706 358.037,489.9086 C356.636,490.3056 355.126,490.3356 353.854,488.9196 C341.954,475.6626 329.898,462.5446 318.071,449.2226 C310.897,441.1426 304.06,432.7636 297.029,424.5566 C296.478,423.9146 295.584,423.5676 294.849,423.0846 C294.509,423.9586 293.872,424.8316 293.87,425.7076 C293.814,446.2356 293.826,466.7636 293.826,487.2926 L293.826,489.9896 Z M277.4226,490.0764 C273.0336,490.0764 269.0576,490.1374 265.0886,490.0004 C264.5886,489.9834 263.9326,489.0024 263.6716,488.3414 C259.9426,478.8444 256.2086,469.3474 252.6176,459.7974 C251.6196,457.1444 250.1766,456.1834 247.2366,456.2694 C239.0116,456.5124 230.7746,456.3864 222.5426,456.3254 C220.9966,456.3134 220.1166,456.6964 219.5406,458.2704 C215.8406,468.3944 212.0476,478.4844 208.2336,488.5654 C208.0416,489.0714 207.3606,489.7394 206.9086,489.7384 C204.7736,489.7294 202.6396,489.5154 200.3656,489.3634 C201.4586,486.8264 202.6176,484.1284 203.7826,481.4334 C214.7676,456.0284 225.7576,430.6274 236.7266,405.2154 C237.2356,404.0334 237.6786,403.1574 239.2786,403.1644 C240.8766,403.1704 241.1596,404.1894 241.6046,405.2414 C253.2436,432.7374 264.8846,460.2344 276.5206,487.7324 C276.7886,488.3664 277.0166,489.0174 277.4226,490.0764 Z M160.8943,404.767 L160.8943,482.644 L195.2743,482.644 C195.2743,484.28 195.3293,486.191 195.2273,488.094 C195.2073,488.462 194.6303,488.914 194.2093,489.114 C193.8383,489.289 193.3263,489.174 192.8753,489.174 C179.6243,489.175 166.3733,489.137 153.1233,489.218 C151.1553,489.23 150.6713,488.659 150.6763,486.711 C150.7443,460.21 150.7443,433.708 150.6743,407.207 C150.6693,405.233 151.2013,404.611 153.1463,404.73 C155.6343,404.883 158.1403,404.767 160.8943,404.767 Z M81.847,489.9838 L71.947,489.9838 C71.905,489.2138 71.835,488.5328 71.835,487.8498 C71.829,461.2268 71.852,434.6048 71.785,407.9828 C71.781,406.0148 72.314,405.3468 74.263,405.5078 C76.116,405.6608 77.993,405.6038 79.854,405.5218 C81.293,405.4588 82.067,405.8638 81.858,407.4568 C81.775,408.0888 81.847,408.7408 81.847,409.3838 C81.847,435.3638 81.847,461.3428 81.847,487.3228 L81.847,489.9838 Z M93.9461,471.5863 C94.7331,472.7843 95.2601,473.5433 95.7431,474.3303 C98.5161,478.8553 101.8571,482.7573 106.9641,484.7833 C118.4641,489.3473 130.4061,482.0983 131.8401,469.8163 C132.6751,462.6573 130.0291,457.3013 123.8581,453.8673 C119.8871,451.6593 115.6041,450.0183 111.4891,448.0623 C108.8811,446.8223 106.2711,445.5673 103.7541,444.1563 C90.3001,436.6103 90.5011,416.5153 102.7741,408.4533 C112.4431,402.1033 122.7101,401.6463 133.3061,405.9443 C133.8971,406.1853 134.4411,406.5483 134.9871,406.8863 C138.2611,408.9103 138.2551,408.9123 136.9601,412.5323 C136.3111,414.3473 135.7031,416.1763 135.0331,417.9823 C134.8251,418.5413 134.4741,419.0483 133.9411,420.0403 C133.4021,419.0163 133.0961,418.4353 132.7901,417.8533 C129.1211,410.8653 121.1741,407.1803 113.7691,409.1643 C108.4511,410.5893 104.7661,413.9403 103.4741,419.3413 C102.0851,425.1473 103.3361,430.5943 108.1171,434.3203 C111.5571,437.0013 115.6891,438.8303 119.6191,440.8303 C122.5321,442.3133 125.6631,443.3613 128.6161,444.7733 C140.0611,450.2433 143.4441,458.8573 140.1911,471.0843 C137.5281,481.0933 130.5291,486.9163 120.7711,489.5293 C112.3491,491.7863 104.0831,491.0703 96.1101,487.4703 C95.1761,487.0483 94.2751,486.5403 93.4041,486.0003 C90.5611,484.2383 90.6041,484.2343 91.4021,481.0503 C91.9311,478.9343 92.3061,476.7783 92.8241,474.6583 C93.0411,473.7693 93.4481,472.9263 93.9461,471.5863 Z" id="Fill-16" fill="#C6D9DC"></path>
        <path d="M444.851271,376.34127 C444.877271,372.62927 442.155271,369.73627 438.599271,369.69727 C434.913271,369.65727 432.034271,372.53227 432.025271,376.26227 C432.015271,379.88727 434.849271,382.78627 438.436271,382.82327 C442.053271,382.86227 444.825271,380.06127 444.851271,376.34127 M438.405271,368.00027 C443.127271,367.96427 446.872271,371.52627 446.940271,376.11727 C447.009271,380.85327 443.345271,384.54627 438.552271,384.57027 C433.735271,384.59627 430.038271,381.00527 430.000271,376.26327 C429.963271,371.72627 433.715271,368.03627 438.405271,368.00027 M436.9275,375.8178 C437.0855,376.0258 437.2445,376.2338 437.4035,376.4408 C438.1585,375.9818 438.9145,375.5218 439.6695,375.0628 C439.0875,374.6278 438.5205,373.8498 437.9185,373.8228 C436.2605,373.7478 436.9865,375.0138 436.9275,375.8178 M440.6895,376.5678 C441.2065,378.1028 441.6255,379.3428 442.0475,380.5928 C440.5745,381.2048 439.8045,380.7548 439.5975,379.3778 C439.3875,377.9748 438.6275,377.3828 437.3485,377.5718 C436.1005,378.3238 437.9225,381.1428 434.9195,380.7568 C434.9195,378.2548 434.9075,375.8978 434.9345,373.5428 C434.9375,373.2528 435.1565,372.7058 435.2445,372.7128 C437.2255,372.8508 439.4275,372.5788 441.1065,373.3858 C442.4725,374.0428 441.6795,375.7428 440.6895,376.5678" id="Fill-28" fill="#C6D9DC"></path>
    </g>
</svg>