<?xml version="1.0" encoding="UTF-8"?>
<svg width="98px" height="39px" viewBox="0 0 98 39" version="1.1" xmlns="http://www.w3.org/2000/svg" xmlns:xlink="http://www.w3.org/1999/xlink">
    <!-- Generator: Sketch 51.1 (57501) - http://www.bohemiancoding.com/sketch -->
    <title>luke-james-logo</title>
    <desc>Created with Sketch.</desc>
    <defs></defs>
    <g id="Page-1" stroke="none" stroke-width="1" fill="none" fill-rule="evenodd">
        <g id="Desktop" transform="translate(-471.000000, -467.000000)" fill="#B10838">
            <g id="Group-7" transform="translate(471.000000, 467.000000)">
                <g id="Group-3" transform="translate(0.000000, 0.359300)">
                    <g id="luke-james-logo">
                        <path d="M83.7359,19.1813 C86.0589,19.1173 88.8529,16.6443 88.4989,14.8713 C86.2969,15.6543 84.9069,17.2483 83.7359,19.1813 Z M47.5829,3.7593 C48.0559,8.3353 50.1409,12.2623 52.4229,16.1123 C51.7049,11.6423 50.6629,7.2993 47.5829,3.7593 Z M59.7089,21.0563 C59.7089,21.3743 59.6679,21.6993 59.7149,22.0093 C59.8959,23.1853 60.9509,23.6473 61.7749,22.8093 C63.8169,20.7323 64.7709,18.1513 64.6719,15.2593 C64.6259,13.9353 63.5899,13.5913 62.6139,14.5023 C60.7259,16.2643 59.7979,18.4853 59.7089,21.0563 Z M97.8639,28.6083 C97.0979,30.3903 95.5719,30.6013 93.9009,30.5453 C91.3659,30.4603 89.2089,29.5933 87.5449,27.6773 C87.5919,27.5633 87.6409,27.4493 87.6899,27.3343 C88.1809,27.5613 88.6969,27.7463 89.1599,28.0213 C90.5659,28.8553 92.0649,29.3343 93.7049,29.2613 C95.5879,29.1773 96.0359,28.3173 95.0169,26.7693 C93.8029,24.9243 92.5689,23.0923 91.3699,21.2943 C90.7769,22.1333 90.1909,23.3293 89.2759,24.1663 C88.0089,25.3273 86.6159,26.5003 85.0599,27.1583 C82.3969,28.2813 80.1279,26.2033 80.6679,23.3543 C80.8369,22.4623 81.1199,21.5933 81.2769,20.9923 C80.5339,20.1173 79.9119,19.3843 79.2349,18.5893 C79.0669,19.5123 78.6859,20.6083 78.7029,21.6973 C78.7539,24.8773 78.9629,28.0553 79.1099,31.2343 C79.1119,31.2743 79.1179,31.3133 79.1229,31.3533 C79.3299,32.9343 78.8669,33.9643 77.8919,34.0903 C76.8679,34.2243 75.6679,33.0033 75.5709,31.6403 C75.3019,27.8273 75.5779,24.0663 76.8649,20.4363 C77.5129,18.6073 78.2539,16.8103 78.8949,14.8743 C78.4159,15.4823 77.8129,16.0303 77.4799,16.7093 C76.5219,18.6673 75.6959,20.6903 74.7669,22.6633 C74.4219,23.3983 74.2419,24.6663 73.0549,24.1783 C71.8699,23.6913 72.6429,22.6673 72.9089,21.9033 C73.5609,20.0323 74.3429,18.2023 74.9309,16.3123 C75.1299,15.6753 74.8999,14.9063 74.8659,14.1983 C74.6789,14.1343 74.4939,14.0713 74.3069,14.0073 C73.7559,14.8203 73.0769,15.5753 72.6759,16.4563 C71.5629,18.9103 71.0039,21.5083 70.9699,24.2123 C70.9609,25.0173 70.9629,25.8323 70.0329,26.2243 C69.2909,26.5363 68.7679,26.3793 68.5949,25.5513 C68.3369,24.3123 68.1169,23.0643 67.8449,21.6273 C67.4309,22.4603 67.1309,23.1563 66.7529,23.8063 C66.3079,24.5713 65.7459,25.5263 64.7699,25.1183 C64.2419,24.8983 64.0369,23.9023 63.6929,23.2693 C63.6849,23.2853 63.5959,23.5143 63.4579,23.7073 C62.9749,24.3833 62.5659,25.1443 61.9649,25.6963 C60.3289,27.2013 58.4039,26.7053 57.8319,24.5803 C57.5479,23.5223 57.0199,22.8613 56.0899,22.3853 C56.0899,24.5603 56.1839,26.7053 56.0629,28.8383 C55.9529,30.7793 55.6739,32.7183 55.3329,34.6333 C55.1989,35.3853 54.7779,36.1313 54.3349,36.7753 C53.4269,38.0943 52.1729,38.3433 50.7879,37.5443 C49.1729,36.6133 48.1309,35.1673 47.3239,33.5253 C45.6699,30.1623 44.8439,26.5693 44.4119,22.8783 C44.3579,22.4153 44.7529,21.9003 44.9389,21.4093 C45.2999,21.8113 45.8639,22.1593 45.9899,22.6233 C46.7369,25.3853 47.3819,28.1763 48.8849,30.6603 C49.2969,31.3393 49.7129,32.0363 50.2459,32.6163 C51.1309,33.5763 52.0179,33.4433 52.4229,32.2253 C52.8199,31.0293 53.1779,29.7473 53.1759,28.5053 C53.1719,25.7973 52.9469,23.0893 52.7569,20.3853 C52.7269,19.9503 52.4969,19.4653 52.2159,19.1193 C48.8609,14.9653 46.4419,10.3503 45.4339,5.0823 C45.2329,4.0253 45.3869,2.8583 45.5869,1.7813 C45.7599,0.8373 46.4839,0.4853 47.4899,0.7023 C49.4869,1.1353 50.4879,2.7183 51.5609,4.1853 C53.6359,7.0213 54.4229,10.3693 55.0999,13.7243 C55.4849,15.6303 55.5259,17.6063 55.9149,19.5103 C56.0709,20.2773 56.7439,20.9383 57.1819,21.6473 C57.2949,21.6053 57.4069,21.5623 57.5189,21.5203 C57.7679,20.4983 57.9799,19.4663 58.2749,18.4583 C58.8139,16.6163 59.7979,15.0463 61.3309,13.8593 C62.8899,12.6513 63.8799,12.6663 65.5089,13.8813 C65.5709,13.9283 65.6439,13.9633 65.7159,13.9923 C67.1359,14.5513 67.0949,14.7273 66.6369,16.2323 C65.9929,18.3473 65.5419,20.5233 65.0529,22.6823 C64.9769,23.0223 65.1399,23.4153 65.2159,23.9523 C67.0829,22.7423 67.6879,21.1003 67.8759,19.2023 C67.9859,18.0963 68.1239,16.9853 68.3699,15.9033 C68.4889,15.3833 68.8889,14.9283 69.1629,14.4433 C69.3299,14.4793 69.4969,14.5153 69.6649,14.5513 L69.6649,20.1213 C69.8249,20.1523 69.9849,20.1833 70.1449,20.2143 C70.3429,19.7503 70.5269,19.2793 70.7439,18.8243 C71.4929,17.2533 72.1949,15.6563 73.0339,14.1343 C73.4809,13.3223 74.2049,12.6643 75.2859,12.9693 C76.4279,13.2903 76.2179,14.2933 76.2969,15.1393 C76.3109,15.2913 76.3269,15.4453 76.3609,15.7883 C76.8479,15.2183 77.1939,14.6923 77.6549,14.3033 C78.2509,13.8003 78.8879,13.2853 79.5969,12.9943 C80.6059,12.5813 81.2479,13.1583 81.0609,14.2363 C80.9269,15.0143 80.5859,15.7623 80.4909,16.5413 C80.4179,17.1503 80.4699,17.8273 80.6769,18.3973 C80.8159,18.7783 81.2829,19.1613 81.6799,19.2783 C81.8869,19.3383 82.3439,18.8723 82.5489,18.5543 C83.8349,16.5463 85.2209,14.6633 87.6599,13.9413 C87.9989,13.8413 88.3529,13.7523 88.7029,13.7423 C89.9649,13.7063 90.4199,14.2643 90.0289,15.4473 C89.0959,18.2723 86.8479,19.6213 84.1989,20.4233 C82.9109,20.8133 82.3729,21.9123 82.7319,23.8353 C82.9319,24.9103 83.7589,25.3373 85.1469,25.0853 C88.0759,24.5533 90.8029,21.7083 91.1779,18.7643 C91.4049,16.9853 92.1669,15.4923 93.5319,14.3383 C93.8779,14.0453 94.3559,13.7643 94.7819,13.7503 C95.2789,13.7333 96.0169,13.8703 96.2239,14.2053 C96.4269,14.5343 96.1719,15.2243 95.9769,15.6993 C95.8179,16.0893 95.4829,16.4243 95.1769,16.7373 C93.7639,18.1803 93.6839,19.8233 94.4239,21.5903 C94.5929,21.9943 94.8019,22.3833 95.0209,22.7623 C95.9629,24.3943 96.9149,26.0203 97.8639,27.6483 L97.8639,28.6083 Z" id="Fill-1"></path>
                        <path d="M36.147,14.9001 C33.502,15.9671 32.205,18.1401 31.118,20.6511 C33.956,19.9161 36.783,16.7101 36.147,14.9001 M22.477,18.0221 C23.502,16.5661 24.385,15.1081 25.487,13.8401 C25.981,13.2731 26.897,13.0411 27.659,12.7571 C27.853,12.6851 28.33,12.9361 28.42,13.1481 C28.511,13.3581 28.365,13.8031 28.172,13.9771 C27.734,14.3711 27.205,14.6651 26.709,14.9941 C24.928,16.1801 23.669,17.7021 23.697,19.9631 C23.718,21.7331 25.639,23.3621 27.373,23.0771 C27.636,23.0341 27.956,22.6291 28.043,22.3301 C28.842,19.6311 29.702,16.9411 32.053,15.1591 C33.136,14.3381 34.382,13.6161 35.668,13.2071 C37.367,12.6671 38.62,14.1031 38.157,15.8281 C37.315,18.9721 34.854,20.3571 32.082,21.3741 C31.38,21.6301 30.627,21.6771 30.441,22.6361 C30.194,23.9061 29.894,25.1811 30.729,26.3241 C31.272,27.0681 32.097,27.0351 32.913,26.7991 C34.713,26.2801 35.787,24.8451 36.946,23.5391 C37.606,22.7961 38.168,21.9641 38.786,21.1811 C39.007,20.9011 39.237,20.6171 39.506,20.3851 C40.213,19.7771 40.974,19.8151 41.7,20.3361 C42.424,20.8561 42.215,21.5571 41.874,22.1591 C40.536,24.5191 38.465,26.1711 36.243,27.5961 C35.161,28.2911 33.889,28.7501 32.646,29.1201 C30.491,29.7621 28.934,28.8851 28.04,26.8351 C27.838,26.3731 27.35,25.9001 26.883,25.7161 C25.235,25.0691 24.328,24.4301 22.687,22.3251 C22.815,23.1751 22.883,23.7131 22.981,24.2441 C23.083,24.7921 23.209,25.3341 23.332,25.8771 C23.549,26.8451 23.805,27.8061 23.982,28.7821 C24.121,29.5471 23.979,30.2661 23.083,30.4761 C22.13,30.6991 21.355,30.3131 21.105,29.3851 C20.691,27.8541 20.429,26.2811 20.102,24.7261 C20.085,24.6501 20.05,24.5781 20.023,24.5041 C18.108,25.4921 17.458,25.1051 17.139,22.6801 C16.889,23.5751 16.834,24.4741 16.402,25.1261 C15.975,25.7701 15.24,26.3851 14.513,26.6181 C13.367,26.9841 12.579,26.1961 11.969,25.0531 C11.602,26.0471 11.338,26.9051 10.973,27.7161 C10.046,29.7771 8.802,31.6281 6.976,32.9981 C5.467,34.1291 3.698,33.9001 2.928,32.2091 C1.967,30.0971 1.179,27.8471 0.733,25.5761 C-0.062,21.5301 -0.284,17.4171 0.435,13.3111 C0.524,12.8061 0.609,12.2581 0.872,11.8411 C1.084,11.5061 1.562,11.3391 1.922,11.0971 C2.138,11.4381 2.509,11.7641 2.543,12.1221 C2.689,13.6311 2.712,15.1521 2.821,16.6661 C3.089,20.4041 3.551,24.1121 4.743,27.6911 C5.07,28.6741 5.558,29.6041 6.656,29.7801 C7.799,29.9631 8.527,29.1331 9.022,28.2541 C9.782,26.9081 10.566,25.5381 11.036,24.0801 C11.303,23.2481 10.867,22.2141 10.924,21.2841 C11.043,19.3941 11.213,17.5021 11.517,15.6351 C11.588,15.1971 12.274,14.8581 12.676,14.4731 C12.991,14.9401 13.45,15.3661 13.595,15.8811 C14.156,17.8641 13.714,19.8151 13.327,21.7821 C13.157,22.6421 13.26,23.5881 13.412,24.4641 C13.475,24.8341 13.982,25.1271 14.288,25.4541 C14.552,25.1291 14.992,24.8351 15.051,24.4761 C15.281,23.1051 15.352,21.7091 15.552,20.3321 C15.746,18.9991 15.954,17.6591 16.309,16.3641 C16.419,15.9641 17.036,15.7041 17.42,15.3791 C17.656,15.7801 18.078,16.1721 18.096,16.5831 C18.182,18.5331 18.091,20.4921 18.218,22.4381 C18.253,22.9791 18.851,23.9481 19.127,23.9251 C20.079,23.8501 19.927,22.9941 19.898,22.2521 C19.699,17.2701 20.474,12.4021 21.686,7.5901 C21.783,7.2071 21.862,6.7711 22.1,6.4861 C22.345,6.1941 22.776,6.0581 23.125,5.8531 C23.25,6.1901 23.507,6.5391 23.477,6.8601 C23.24,9.3191 22.92,11.7691 22.68,14.2281 C22.556,15.4921 22.541,16.7661 22.477,18.0221" id="Fill-4"></path>
                    </g>
                </g>
            </g>
        </g>
    </g>
</svg>